<mxfile host="Electron" modified="2023-08-03T13:52:25.698Z" agent="Mozilla/5.0 (Windows NT 10.0; Win64; x64) AppleWebKit/537.36 (KHTML, like Gecko) draw.io/21.6.5 Chrome/114.0.5735.243 Electron/25.3.1 Safari/537.36" etag="dOMlbdE6hXILWkjy2Bnv" version="21.6.5" type="device">
  <diagram name="Page-1" id="pynQCXUqZvTNLczhjeL5">
    <mxGraphModel dx="880" dy="511" grid="1" gridSize="10" guides="1" tooltips="1" connect="1" arrows="1" fold="1" page="1" pageScale="1" pageWidth="1169" pageHeight="827" math="0" shadow="0">
      <root>
        <mxCell id="0" />
        <mxCell id="1" parent="0" />
        <mxCell id="dKacNEN_vZhz8hZyXIhm-4" style="rounded=0;orthogonalLoop=1;jettySize=auto;html=1;exitX=0.25;exitY=1;exitDx=0;exitDy=0;endArrow=none;endFill=0;startArrow=diamondThin;startFill=1;sourcePerimeterSpacing=0;startSize=12;" edge="1" parent="1" source="dKacNEN_vZhz8hZyXIhm-1" target="dKacNEN_vZhz8hZyXIhm-2">
          <mxGeometry relative="1" as="geometry" />
        </mxCell>
        <mxCell id="dKacNEN_vZhz8hZyXIhm-7" value="rear" style="edgeLabel;html=1;align=center;verticalAlign=middle;resizable=0;points=[];" vertex="1" connectable="0" parent="dKacNEN_vZhz8hZyXIhm-4">
          <mxGeometry x="0.6514" y="2" relative="1" as="geometry">
            <mxPoint x="-22" y="-1" as="offset" />
          </mxGeometry>
        </mxCell>
        <mxCell id="dKacNEN_vZhz8hZyXIhm-8" value="2" style="edgeLabel;html=1;align=center;verticalAlign=middle;resizable=0;points=[];" vertex="1" connectable="0" parent="dKacNEN_vZhz8hZyXIhm-4">
          <mxGeometry x="0.4" relative="1" as="geometry">
            <mxPoint x="-5" y="17" as="offset" />
          </mxGeometry>
        </mxCell>
        <mxCell id="dKacNEN_vZhz8hZyXIhm-1" value="Car" style="fontStyle=0;html=1;whiteSpace=wrap;" vertex="1" parent="1">
          <mxGeometry x="160" width="40" height="30" as="geometry" />
        </mxCell>
        <mxCell id="dKacNEN_vZhz8hZyXIhm-5" value="Axle" style="edgeStyle=orthogonalEdgeStyle;rounded=0;orthogonalLoop=1;jettySize=auto;html=1;exitX=1;exitY=0.5;exitDx=0;exitDy=0;entryX=0;entryY=0.5;entryDx=0;entryDy=0;endArrow=none;endFill=0;verticalAlign=bottom;" edge="1" parent="1" source="dKacNEN_vZhz8hZyXIhm-2" target="dKacNEN_vZhz8hZyXIhm-3">
          <mxGeometry relative="1" as="geometry" />
        </mxCell>
        <mxCell id="dKacNEN_vZhz8hZyXIhm-11" value="*" style="edgeLabel;html=1;align=center;verticalAlign=middle;resizable=0;points=[];" vertex="1" connectable="0" parent="dKacNEN_vZhz8hZyXIhm-5">
          <mxGeometry x="-0.7375" relative="1" as="geometry">
            <mxPoint x="-5" y="8" as="offset" />
          </mxGeometry>
        </mxCell>
        <mxCell id="dKacNEN_vZhz8hZyXIhm-12" value="*" style="edgeLabel;html=1;align=center;verticalAlign=middle;resizable=0;points=[];" vertex="1" connectable="0" parent="dKacNEN_vZhz8hZyXIhm-5">
          <mxGeometry x="0.725" y="2" relative="1" as="geometry">
            <mxPoint x="-3" y="11" as="offset" />
          </mxGeometry>
        </mxCell>
        <mxCell id="dKacNEN_vZhz8hZyXIhm-2" value="Wheel" style="fontStyle=0;html=1;whiteSpace=wrap;" vertex="1" parent="1">
          <mxGeometry x="40" y="120" width="60" height="30" as="geometry" />
        </mxCell>
        <mxCell id="dKacNEN_vZhz8hZyXIhm-6" style="rounded=0;orthogonalLoop=1;jettySize=auto;html=1;exitX=0.25;exitY=0;exitDx=0;exitDy=0;entryX=0.75;entryY=1;entryDx=0;entryDy=0;endArrow=none;endFill=0;" edge="1" parent="1" source="dKacNEN_vZhz8hZyXIhm-3" target="dKacNEN_vZhz8hZyXIhm-1">
          <mxGeometry relative="1" as="geometry" />
        </mxCell>
        <mxCell id="dKacNEN_vZhz8hZyXIhm-9" value="1" style="edgeLabel;html=1;align=center;verticalAlign=middle;resizable=0;points=[];" vertex="1" connectable="0" parent="dKacNEN_vZhz8hZyXIhm-6">
          <mxGeometry x="-0.4858" relative="1" as="geometry">
            <mxPoint x="-5" y="13" as="offset" />
          </mxGeometry>
        </mxCell>
        <mxCell id="dKacNEN_vZhz8hZyXIhm-10" value="e" style="edgeLabel;html=1;align=center;verticalAlign=middle;resizable=0;points=[];" vertex="1" connectable="0" parent="dKacNEN_vZhz8hZyXIhm-6">
          <mxGeometry x="-0.3253" y="-1" relative="1" as="geometry">
            <mxPoint x="27" y="10" as="offset" />
          </mxGeometry>
        </mxCell>
        <mxCell id="dKacNEN_vZhz8hZyXIhm-3" value="Engine" style="fontStyle=0;html=1;whiteSpace=wrap;" vertex="1" parent="1">
          <mxGeometry x="260" y="120" width="60" height="30" as="geometry" />
        </mxCell>
        <mxCell id="dKacNEN_vZhz8hZyXIhm-13" value="Figure 11.5 Associations compared with Connectors" style="text;html=1;align=center;verticalAlign=middle;resizable=0;points=[];autosize=1;strokeColor=none;fillColor=none;" vertex="1" parent="1">
          <mxGeometry x="40" y="178" width="300" height="30" as="geometry" />
        </mxCell>
        <mxCell id="dKacNEN_vZhz8hZyXIhm-14" value="&lt;b&gt;Car&lt;/b&gt;" style="swimlane;fontStyle=0;align=center;verticalAlign=middle;childLayout=stackLayout;horizontal=1;startSize=30;horizontalStack=0;resizeParent=1;resizeParentMax=0;resizeLast=0;collapsible=0;marginBottom=0;html=1;whiteSpace=wrap;" vertex="1" parent="1">
          <mxGeometry x="400" width="400" height="152" as="geometry" />
        </mxCell>
        <mxCell id="dKacNEN_vZhz8hZyXIhm-17" value="internal structure" style="html=1;strokeColor=none;fillColor=none;align=center;verticalAlign=middle;spacingLeft=4;spacingRight=4;rotatable=0;points=[[0,0.5],[1,0.5]];resizeWidth=1;whiteSpace=wrap;" vertex="1" parent="dKacNEN_vZhz8hZyXIhm-14">
          <mxGeometry y="30" width="400" height="20" as="geometry" />
        </mxCell>
        <mxCell id="dKacNEN_vZhz8hZyXIhm-18" value="" style="swimlane;fontStyle=1;align=center;verticalAlign=top;horizontal=1;startSize=0;collapsible=0;marginBottom=0;html=1;strokeColor=none;fillColor=none;whiteSpace=wrap;" vertex="1" parent="dKacNEN_vZhz8hZyXIhm-14">
          <mxGeometry y="50" width="400" height="102" as="geometry" />
        </mxCell>
        <mxCell id="dKacNEN_vZhz8hZyXIhm-21" value="a : Axle" style="edgeStyle=orthogonalEdgeStyle;rounded=0;orthogonalLoop=1;jettySize=auto;html=1;entryX=0;entryY=0.5;entryDx=0;entryDy=0;endArrow=none;endFill=0;verticalAlign=bottom;" edge="1" parent="dKacNEN_vZhz8hZyXIhm-18" source="dKacNEN_vZhz8hZyXIhm-19" target="dKacNEN_vZhz8hZyXIhm-20">
          <mxGeometry relative="1" as="geometry" />
        </mxCell>
        <mxCell id="dKacNEN_vZhz8hZyXIhm-22" value="2" style="edgeLabel;html=1;align=center;verticalAlign=middle;resizable=0;points=[];" vertex="1" connectable="0" parent="dKacNEN_vZhz8hZyXIhm-21">
          <mxGeometry x="-0.3231" y="1" relative="1" as="geometry">
            <mxPoint x="-30" y="10" as="offset" />
          </mxGeometry>
        </mxCell>
        <mxCell id="dKacNEN_vZhz8hZyXIhm-23" value="1" style="edgeLabel;html=1;align=center;verticalAlign=middle;resizable=0;points=[];" vertex="1" connectable="0" parent="dKacNEN_vZhz8hZyXIhm-21">
          <mxGeometry x="0.6" y="-2" relative="1" as="geometry">
            <mxPoint x="8" y="8" as="offset" />
          </mxGeometry>
        </mxCell>
        <mxCell id="dKacNEN_vZhz8hZyXIhm-19" value="rear : Wheel [2]" style="html=1;align=center;verticalAlign=middle;rotatable=0;whiteSpace=wrap;" vertex="1" parent="dKacNEN_vZhz8hZyXIhm-18">
          <mxGeometry width="110" height="30" relative="1" as="geometry">
            <mxPoint x="40" y="36" as="offset" />
          </mxGeometry>
        </mxCell>
        <mxCell id="dKacNEN_vZhz8hZyXIhm-20" value="e : Engine" style="fontStyle=0;dashed=1;html=1;whiteSpace=wrap;verticalAlign=middle;" vertex="1" parent="dKacNEN_vZhz8hZyXIhm-18">
          <mxGeometry x="280" y="36" width="80" height="30" as="geometry" />
        </mxCell>
      </root>
    </mxGraphModel>
  </diagram>
</mxfile>
